<svg xmlns="http://www.w3.org/2000/svg" viewBox="0 0 119 70"><g id="logo1"><g id="logo2"><path d="M35.71,16q8.15,0,12.57,6a33.56,33.56,0,0,1,10-4.55A37.43,37.43,0,0,1,67.9,16h1a12.62,12.62,0,0,1,10,4.1Q83,24.2,83,31V70H66V33.54A3.41,3.41,0,0,0,65,31a3.52,3.52,0,0,0-2.57-1h.43A45.64,45.64,0,0,0,51,32V70H33V33.54A3.41,3.41,0,0,0,32,31a3.52,3.52,0,0,0-2.57-1h.43A45.64,45.64,0,0,0,18,32V70H0V17H15.59l1,5a36.12,36.12,0,0,1,9.71-4.55A31.06,31.06,0,0,1,34.71,16Z"/><path d="M84,18a90.46,90.46,0,0,1,17.49-2H104q6.8,0,10.9,4.1T119,31V54q0,7.5-4.25,11.75T103,70H66V0H84Zm17,14.5A3.42,3.42,0,0,0,97.5,29H95a56.87,56.87,0,0,0-7.25.4q-3.05.4-4.75.6V56H97a4,4,0,0,0,4-4Z"/></g></g></svg>